<?xml version="1.0" encoding="UTF-8" standalone="no"?><!DOCTYPE svg PUBLIC "-//W3C//DTD SVG 1.1//EN" "http://www.w3.org/Graphics/SVG/1.1/DTD/svg11.dtd"><svg width="100%" height="100%" viewBox="0 0 403 278" version="1.1" xmlns="http://www.w3.org/2000/svg" xmlns:xlink="http://www.w3.org/1999/xlink" xml:space="preserve" xmlns:serif="http://www.serif.com/" style="fill-rule:evenodd;clip-rule:evenodd;"><rect id="Artboard1" x="0" y="0" width="402.228" height="277.313" style="fill:none;"/><clipPath id="_clip1"><rect x="0" y="0" width="402.228" height="277.313"/></clipPath><g clip-path="url(#_clip1)"><rect x="1.316" y="-0.051" width="401" height="277" style="fill:#eff3fd;fill-rule:nonzero;"/><g><path d="M6.413,318.643l360.348,-418.497" style="fill:none;fill-rule:nonzero;stroke:#becdf8;stroke-width:0.92px;"/><path d="M-113.17,77.577l360.348,-418.498" style="fill:none;fill-rule:nonzero;stroke:#becdf8;stroke-width:0.92px;"/><path d="M15.212,337.222l360.348,-418.497" style="fill:none;fill-rule:nonzero;stroke:#becdf8;stroke-width:0.92px;"/><path d="M-104.371,96.156l360.348,-418.497" style="fill:none;fill-rule:nonzero;stroke:#becdf8;stroke-width:0.92px;"/><path d="M24.011,355.801l360.348,-418.497" style="fill:none;fill-rule:nonzero;stroke:#becdf8;stroke-width:0.92px;"/><path d="M-95.572,114.735l360.348,-418.497" style="fill:none;fill-rule:nonzero;stroke:#becdf8;stroke-width:0.92px;"/><path d="M32.81,374.38l360.347,-418.497" style="fill:none;fill-rule:nonzero;stroke:#becdf8;stroke-width:0.92px;"/><path d="M-86.773,133.315l360.348,-418.497" style="fill:none;fill-rule:nonzero;stroke:#becdf8;stroke-width:0.92px;"/><path d="M41.609,392.96l360.348,-418.497" style="fill:none;fill-rule:nonzero;stroke:#becdf8;stroke-width:0.92px;"/><path d="M-77.974,151.894l360.347,-418.497" style="fill:none;fill-rule:nonzero;stroke:#becdf8;stroke-width:0.92px;"/><path d="M50.407,411.539l360.348,-418.497" style="fill:none;fill-rule:nonzero;stroke:#becdf8;stroke-width:0.92px;"/><path d="M-69.176,170.473l360.348,-418.497" style="fill:none;fill-rule:nonzero;stroke:#becdf8;stroke-width:0.92px;"/><path d="M59.206,430.118l360.348,-418.497" style="fill:none;fill-rule:nonzero;stroke:#becdf8;stroke-width:0.92px;"/><path d="M-60.377,189.052l360.348,-418.497" style="fill:none;fill-rule:nonzero;stroke:#becdf8;stroke-width:0.92px;"/><path d="M68.005,448.697l360.348,-418.497" style="fill:none;fill-rule:nonzero;stroke:#becdf8;stroke-width:0.92px;"/><path d="M-51.578,207.631l360.348,-418.497" style="fill:none;fill-rule:nonzero;stroke:#becdf8;stroke-width:0.92px;"/><path d="M76.804,467.277l360.348,-418.497" style="fill:none;fill-rule:nonzero;stroke:#becdf8;stroke-width:0.92px;"/><path d="M-42.779,226.211l360.348,-418.497" style="fill:none;fill-rule:nonzero;stroke:#becdf8;stroke-width:0.92px;"/><path d="M85.602,485.856l360.348,-418.497" style="fill:none;fill-rule:nonzero;stroke:#becdf8;stroke-width:0.92px;"/><path d="M-33.981,244.79l360.348,-418.497" style="fill:none;fill-rule:nonzero;stroke:#becdf8;stroke-width:0.92px;"/><path d="M94.401,504.435l360.348,-418.497" style="fill:none;fill-rule:nonzero;stroke:#becdf8;stroke-width:0.92px;"/><path d="M103.199,523.015l360.348,-418.497" style="fill:none;fill-rule:nonzero;stroke:#becdf8;stroke-width:0.92px;"/><path d="M-24.782,264.763l360.348,-418.497" style="fill:none;fill-rule:nonzero;stroke:#becdf8;stroke-width:0.92px;"/><path d="M111.998,541.594l360.348,-418.497" style="fill:none;fill-rule:nonzero;stroke:#becdf8;stroke-width:0.92px;"/><path d="M-15.983,283.342l360.348,-418.497" style="fill:none;fill-rule:nonzero;stroke:#becdf8;stroke-width:0.92px;"/><path d="M120.797,560.173l360.348,-418.497" style="fill:none;fill-rule:nonzero;stroke:#becdf8;stroke-width:0.92px;"/><path d="M-7.185,301.921l360.348,-418.497" style="fill:none;fill-rule:nonzero;stroke:#becdf8;stroke-width:0.92px;"/></g></g></svg>